<svg xmlns="http://www.w3.org/2000/svg" viewBox="0 0 1778.48 1680"><defs><style>.cls-1{isolation:isolate;}.cls-2,.cls-3{fill:none;stroke-miterlimit:10;stroke-width:0.49px;}.cls-2{stroke:#3f6fdd;}.cls-3{stroke:#3e6fb6;}.cls-4{fill:#3f6fdd;}.cls-5{fill:#fff;}.cls-6{fill:#eee808;}.cls-7{fill:#3e6fb6;}</style></defs><title>logo-full-blue</title><g id="Layer_2" data-name="Layer 2"><g id="logo-full-blue"><g id="logo-full-blue-2" data-name="logo-full-blue"><g class="cls-1"><path class="cls-2" d="M253,1297.17l-33.91,257.61L90.65,1570.43l-65.87-467.6,90.65-11.09,50.22,369.13,45-380.22,90-11.08,47,372.39,48.26-383.48,81.52-9.78-66.52,483.91-123.91,15Z"/><path class="cls-2" d="M524.35,1042.17l93.26-11.08v475.43l-93.26,11.09Z"/><path class="cls-2" d="M658.7,1025.87l288.91-35.22v67.83l-97.83,11.74v407.61l-93.26,11.08v-406.3l-97.82,11.74Z"/></g><g class="cls-1"><path class="cls-2" d="M32.61,659.35,90,652.17v359.35l-57.39,7.18Z"/><path class="cls-2" d="M208,737V997.83l-51.52,6.52v-360l71.74-8.48,58.7,208V628.7l50.87-5.87v360L279.13,990Z"/><path class="cls-2" d="M455.87,707V967.17l-51.52,6.53V614.35l71.74-8.48,58.69,208V598.7l50.87-5.87V952.17L527,959.35Z"/><path class="cls-2" d="M647.61,671.09c0-57.39,30.65-93.92,87.39-101.09s86.74,22.17,86.74,80.22V837.39c0,57.39-30.65,93.91-87.39,101.09C678.26,945,647,916.3,647,858.91V671.09ZM705,855c0,25.43,11.74,33.91,30,32s30-13.05,30-39.13V653.48c0-25.44-11.74-33.91-30-32s-30,13.05-30,39.13Z"/><path class="cls-2" d="M969.78,839.35l43.7-298.7,52.82-6.52-56.08,366.52-85.44,10.44L868.7,558.26l58-7.17Z"/><path class="cls-2" d="M1290.65,866.74l-58,7.17L1222.83,810l-70.44,8.48L1142.61,885l-52.83,6.52L1148.48,525l84.13-10.43Zm-131.08-98.48,55.43-6.52L1187.61,583Z"/><path class="cls-2" d="M1305.65,505.43,1483,483.91v50.87L1423,542V850.43l-57.39,7.18V549.13l-60,7.17Z"/><path class="cls-2" d="M1590.65,622.17l78.92-9.13v51.53l-78.92,9.78V780l99.13-11.74v51.52L1533.26,838.7V477.39l156.52-18.91V510l-99.13,11.74Z"/></g><g class="cls-1"><path class="cls-2" d="M1082,1450.43l-93.26,11.09V986.09L1082,975v204.13l106.3-13V962l95.22-11.74v475.43l-95.22,11.74V1233.26l-106.3,13Z"/></g><g class="cls-1"><path class="cls-3" d="M1404.13,935.87V1411.3l-32,3.92V939.78Z"/><path class="cls-3" d="M1488.26,1401.52l-28.69,3.26V929.35l41.08-5.22,144.78,384.13V906.52l28.7-3.26V1378.7l-35.22,4.56-151.3-405.65v423.91Z"/></g><path class="cls-4" d="M1760.22,1395c-5.22,0-7.18-2.61-3.26-7.17,7.82-9.13,1.3-14.35-3.26-19.57h0c-2-4.56,1.3-7.17,4.56-9.78,3.91-3.91,5.22-7.83,5.22-13-.65-51.52-.65-103-3.26-153.91v-73c0-7.83,2-16.31-2-23.48h0v-5.87c3.26-4.56,2-9.78,2-14.35q-1-36.19-2-72.39c0-9.13,1.31-18.26-2-26.74V930c-.65-12.39,2-25.43-2.6-36.52v-1.31c2-21.52-.66-41.74-.66-62.6,0-2.61-2.61-2.61-5.21-2h0c-1.31,0-2.61,0-3.26.65-5.87.65-12.4.65-18.27,2-30,4.56-60.65,5.87-90.65,13.69-18.26,2.61-36.52,4.57-54.78,7.18-23.48,2.61-47,5.87-71.09,8.48-16.3,1.95-32.61,3.91-49.56,5.86-9.78.66-17.61,3.92-24.78,11.09h0l-1.31,1.31A101.3,101.3,0,0,1,1423.7,885h0c-4.57.65-7.83,3.26-11.09,6.52-22.17,12.39-44.35,18.26-64.57,2.61-1.3-.65-2.6-7.17-5.21,0-.66,2.61,0,5.87,0,9.13,0,80.22-.66,160.44,0,240.65,0,12.39-5.22,25.44,0,37.18V1187c-3.26,5.21-2,10.43-2,15v144.13c0,5.21,1.3,11.08-3.26,16.3h0c-9.13,3.91-9.13,12.39-5.87,17,4.56,7.17,1.3,11.74-3.91,16.3-11.09,9.13-2,13.7,2,18.91h.66l2,2c2.61,4.57-2.61,12.39,3.91,15h0c4.57,2,10.44,5.22,6.53,11.09-7.83,13,0,20.87,4.56,30.65-2,6.52-2,15.65-7.17,17.61-12.39,5.22-13.7,15.65-17.61,25.43-3.91,4.57-.65,11.09-4.57,15h0l-.65.66c-5.22,2.6-7.17,6.52-9.78,12.39-5.87,13.69-11.09,29.35-28,34.56-6.53,2-11.09,15-5.87,18.92,6.52,5.21,6.52,9.13-2,13-2,.65-3.26,2.61-3.91,5.22-3.26,15.65-7.18,32-9.79,48.26-.65,5.21,0,11.08,7.83,11.74,3.26,0,5.87,5.21,11.09-.66s2.61-9.13,0-13.69c-3.26-4.57,0-8.48,3.26-11.74,4.56-4.57,7.17-.65,9.13,2,3.26,5.21,7.82,3.91,13.69,1.3,5.22-2.61,11.74-5.87,17.61-3.26,0,3.91-7.17,9.13-.65,12.39,2.61,1.31,5.87,0,8.48-2,3.91-4.56,4.56-9.13,0-12.39-5.87-4.56,2-9.78,0-14.34.65,0,2-.66,2.61,0,5.87,9.13,12.39,15,23.48,2.6.65-.65,3.91-1.3,5.21-.65,14.35,5.87,28.7,12.39,42.39,18.26,2.61,1.31,2,7.83,7.83,5.87s5.87-7.82,6.52-12.39q1-5.87,2-11.74c10.43-7.82,24.13-9.13,32-20.87,2-3.26,6.52-2.61,8.47.65,2,2.61,2,7.18,5.87,9.13h0c2.61,14.35,10.44-.65,15.65.66h0l2,2c0,3.92-5.87,10.44,0,11.09,6.52.65,5.87-5.87,5.87-10.43v-3.92c9.13-1.3,15.65-3.26,11.09-15-1.31-3.26.65-8.48,1.3-13h0c4.57-.65,14.35-2,11.74-6.52-9.13-14.35,5.22-8.48,8.48-11.09,5.22-1.3,11.74-2,11.74-9.78,7.17,0,7.17,5.22,7.17,11.08,0,11.74,7.83,17.61,19.57,15,4.56-.65,7.82,0,11.08,2,5.87,3.91,23.48-3.91,24.79-11.74,2.61-15,2-30,13-43,.65-1.31.65-3.26.65-5.22,2-.65,3.92-2.61,5.87-2.61,20.22-3.91,20.22-3.91,25.44-23.48,2-7.82,5.21-14.34,14.35-16.3,7.17-2,20.86-18.91,19.56-23.48-2-9.13-4.56-17.61-7.17-26.74,9.13-11.08,28-15,37.17-7.17,5.87,4.56,11.09,2.61,15.65-2,9.79-11.09,22.18-18.26,35.22-20.87,7.83-1.3,11.09-2,13.7-12.39C1767.39,1397,1768.7,1395,1760.22,1395Z"/><g class="cls-1"><path class="cls-4" d="M52.17,639.78l57.4-7.17V992l-57.4,7.82Z"/><path class="cls-4" d="M227.61,718V978.26l-51.52,6.52v-360l71.74-8.48,58.69,208.05V609.13l50.87-5.87V962.61l-58.69,7.17Z"/><path class="cls-4" d="M475.43,688V948.26l-51.52,6.52v-360l71.74-8.48,58.7,208.05V579.13l50.87-5.87V932.61l-58.7,7.17Z"/><path class="cls-4" d="M667.17,652.17c0-57.39,30.66-93.91,87.4-101.08C810.65,544.57,842,573.26,842,631.3V818.48c0,57.39-30.66,93.91-87.39,101.09-56.09,6.52-87.4-22.18-87.4-80.22Zm57.4,183.26c0,25.44,11.73,33.92,30,32s30-13,30-39.13V633.91c0-25.43-11.74-33.91-30-31.95s-30,13-30,39.13Z"/><path class="cls-4" d="M990,819.78l43.7-298.69,52.82-6.52-56.09,366.52L945,891.52,888.91,538.7,947,531.52Z"/><path class="cls-4" d="M1310.22,847.17l-58,7.18-9.78-63.92L1172,798.91l-9.79,66.52L1109.35,872,1168,505.43,1252.17,495Zm-130.44-97.82,55.44-6.52-27.39-178.7Z"/><path class="cls-4" d="M1325.87,485.87l177.39-21.52v51.52l-60,7.17V831.52l-57.39,7.18V530.22l-60,7.17Z"/><path class="cls-4" d="M1610.22,603.26l78.91-9.78V645l-78.91,9.78V760.43l99.13-11.73v51.52l-156.52,18.91V458.48l156.52-18.91v51.52l-99.13,11.74V603.26Z"/></g><g class="cls-1"><path class="cls-4" d="M273.26,1278.26l-33.91,257.61-128.48,15.65L44.35,1083.91,135,1072.83,185.22,1442l45-380.22,90-11.09L367.17,1423l48.26-383.47,81.53-9.79L430.43,1513.7l-123.91,15Z"/><path class="cls-4" d="M543.91,1023.26l93.26-11.09v475.44l-93.26,11.09Z"/><path class="cls-4" d="M678.26,1007l288.91-35.22v67.83l-97.82,11.73v407.61L776.09,1470V1063l-97.83,11.74Z"/></g><g class="cls-1"><path class="cls-4" d="M1101.52,1431.52l-93.26,11.09V967.17l93.26-11.08v204.13l106.31-13V943L1303,931.3v475.44l-95.21,11.74V1214.35l-106.31,13Z"/></g><g class="cls-1"><path class="cls-5" d="M1423.7,917v475.43l-32,3.91V920.87Z"/><path class="cls-5" d="M1507.83,1382.61l-28.7,3.26V910.43l41.09-5.21L1665,1289.35V887.61l28.7-3.26v475.43l-35.22,4.57L1507.17,958.7v423.91Z"/></g><polygon class="cls-6" points="1621.3 322.83 1583.48 305.22 1547.61 326.74 1552.17 285 1520.87 257.61 1561.96 249.78 1578.26 210.65 1598.48 247.17 1640.22 251.09 1612.17 281.74 1621.3 322.83"/><path class="cls-6" d="M1476.52,405c-.65,0-.65,0-1.3-.65a1.23,1.23,0,0,1,0-2l37.17-41.09a1.39,1.39,0,0,1,2,2l-37.18,41.09Z"/><polygon class="cls-6" points="1360.43 111.52 1321.96 94.56 1286.74 116.09 1290.65 74.35 1259.35 46.96 1300.43 38.48 1316.74 0 1336.96 36.52 1379.35 39.78 1350.65 71.09 1360.43 111.52"/><polygon class="cls-6" points="906.52 186.52 868.04 168.91 832.17 191.09 837.39 149.35 805.43 121.96 846.52 113.48 862.83 75 883.7 111.52 924.78 114.78 896.74 146.09 906.52 186.52"/><polygon class="cls-6" points="116.74 348.26 93.91 383.48 110.22 421.96 69.78 411.52 37.83 438.26 35.87 396.52 0 375 39.13 360 48.91 318.91 75 351.52 116.74 348.26"/><polygon class="cls-6" points="301.96 103.7 279.13 138.91 295.44 177.39 255 166.3 223.04 193.7 221.09 151.96 185.22 129.78 224.35 115.44 234.13 74.35 260.22 106.96 301.96 103.7"/><path class="cls-6" d="M1129.57,445.43h-.66c-.65-.65-1.3-1.3-.65-1.95l135-273.91c.65-.66,1.31-1.31,2-.66s1.3,1.31.65,2l-135,273.26A1.4,1.4,0,0,1,1129.57,445.43Z"/><path class="cls-6" d="M453.26,525c-.65,0-1.3,0-1.3-.65L285,232.83a1.46,1.46,0,0,1,2.61-1.31l167,290.87a1.25,1.25,0,0,1-.66,2Z"/><path class="cls-6" d="M843.26,480.65h0c-1.3,0-2-.65-1.3-1.95L862.17,223c0-.65.66-1.3,2-1.3.65,0,1.3.65,1.3,2L845.22,479.35C845.22,480,844.57,480.65,843.26,480.65Z"/><path class="cls-6" d="M251.74,552.39c-.65,0-.65,0-1.31-.65l-125.21-107a1.38,1.38,0,1,1,2-1.95l125.22,107a1.23,1.23,0,0,1,0,2C252.39,552.39,252.39,552.39,251.74,552.39Z"/><path class="cls-6" d="M847.83,1620.65h-.66c-.65,0-1.95-.65-1.95-2.61a5.91,5.91,0,0,1,.65-3.26v-2c0-1.31.65-2.61,1.3-2.61s1.31-1.31,1.31-1.31a2.27,2.27,0,0,1,.65-1.3,2,2,0,0,1,.65-1.31,4.88,4.88,0,0,1,1.31-2.6c0-.66-.66-1.31-.66-2-.65,0-.65-.65-.65-2h0v-.65a2.27,2.27,0,0,1-.65-1.3c0-.66,0-.66.65-1.31v-1.3a1.41,1.41,0,0,1,1.31-1.31v-34.56l1.3-.65h1.31l.65.65a5,5,0,0,0,2.61-.65l.65-.66.65-.65a3.6,3.6,0,0,1,3.26-1.3H870a2.39,2.39,0,0,0,2-.66h1.95a11.16,11.16,0,0,1,4.57-.65h5.22v6.52a2,2,0,0,1,0,2.61v30.66c0,.65,0,.65-.66,1.3v1.3a2.39,2.39,0,0,1,.66,2c0,1.3-.66,2.61-2,2.61a2.31,2.31,0,0,0-1.31.65c0,.65-.65,1.31-1.95,1.31a2.38,2.38,0,0,1-2-.66h0v1.31c0,1.3-1.3,2.61-2.61,3.26-.65,2-1.3,2.61-2.61,2.61v3.26a3.48,3.48,0,0,1-2.6,2h-2c-1.31,0-2-.65-2.61-.65l-.65.65h0a2.4,2.4,0,0,1-.65,2l-.66.65c-.65,1.31-1.3,1.31-1.95,1.31h-.65l-.66-.65V1618h-.65a.64.64,0,0,1-.65-.65H857v.65l-.66.66a1.4,1.4,0,0,1-1.3,1.3h-2a.64.64,0,0,1-.65-.65c-.65,0-.65,0-1.3-.65a.65.65,0,0,1-.66-.66h-.65a.64.64,0,0,1-.65.66l-.65.65h-2.61c0,.65,0,.65-.65,1.3h2.61Zm5.87-5.87h.65c.65,0,1.3.65,1.95.65H857v-.65l.65-.65a2,2,0,0,1,1.3-.65h0v-.65l1.31-.66a2.36,2.36,0,0,1,1.95.66h0v-2h.66c.65-.65,1.3-.65,1.3-1.3h0v-.66h1.3a1.73,1.73,0,0,1,2,2h1.31v-.65a3.93,3.93,0,0,1,.65-2.61h0l1.3-1.31H872c0-1.3,1.3-2,1.95-2.6h.66V1603a2,2,0,0,0-.66-1.3l-.65-.65.65-.66c1.31-1.3,3.26-2,4.57-1.3.65-.65,1.3-1.3,1.95-1.3v-.66l-.65-1.3.65-.65h0v-.66c0-1.3.66-1.3.66-2a66.31,66.31,0,0,0-.66-11.09V1575h0v-14.35l-.65-.65v-3.26h-2.61a8.3,8.3,0,0,0-3.91.65,5,5,0,0,0-2.61.65H868.7a5.85,5.85,0,0,0-3.27.66h-6.52a.64.64,0,0,0-.65.65h0v.65H857a7.06,7.06,0,0,1-4.57,1.3v20.22l-.65.65h0v11.09a2.41,2.41,0,0,1-.65,2c.65,1.3,0,2-.66,2.61h0v.65c.66,0,.66.65.66,2v1.31l.65,1.3c0,2-1.31,2.61-2,2.61h0v2.61h0c-.65,2-1.3,2.61-2.61,3.26v.65c0,.66,0,1.31-.65,1.31h1.31v-1.31h2.6l3.27,2.61Zm26.73-15Zm3.92-1.3h0v0ZM883,1573Z"/><path class="cls-6" d="M105,1680a1.4,1.4,0,0,1-1.3-1.3c0-.66.65-2,1.3-2l723.91-87.39c.66,0,2,.65,2,1.3s-.65,2-1.3,2L105,1680Z"/><path class="cls-6" d="M902.61,1583.48a1.41,1.41,0,0,1-1.31-1.31c0-.65.66-2,1.31-2l355.43-43c.66,0,2,.66,2,1.31s-.65,2-1.3,2l-356.09,43Z"/><path class="cls-6" d="M1700.87,1485a1.4,1.4,0,0,1-1.3-1.3c0-.66.65-2,1.3-2l75.65-9.13c.65,0,2,.65,2,1.3s-.65,2-1.31,2l-76.3,9.13Z"/><path class="cls-7" d="M1726.34,445.49l-9.24.84v-2.52l21.83-2.51v2.51l-9.24.84V469h-2.52V445.49Zm16-4.19H1744l7.55,15.11a4.15,4.15,0,0,1,.84,2.52h0a6.5,6.5,0,0,1,.84-2.52l7.56-16.79h1.67l1.68,25.18h-2.51l-1.68-19.31v-1.68h0l-7.56,16.79h-1.68l-7.55-15.11h0v1.68l-1.68,19.31h-2.52Z"/></g></g></g></svg>